<svg xmlns="http://www.w3.org/2000/svg" viewBox="0 0 600 450">
  <rect width="600" height="450" fill="#242943"/>
  <!-- branching story graph -->
  <g stroke="#9bf1ff" stroke-width="4" fill="none">
    <rect x="255" y="70" width="90" height="50" rx="8"/>
    <rect x="130" y="200" width="90" height="50" rx="8"/>
    <rect x="380" y="200" width="90" height="50" rx="8"/>
    <rect x="70" y="330" width="90" height="50" rx="8"/>
    <rect x="255" y="330" width="90" height="50" rx="8"/>
    <rect x="440" y="330" width="90" height="50" rx="8"/>
    <line x1="280" y1="120" x2="190" y2="200"/>
    <line x1="320" y1="120" x2="410" y2="200"/>
    <line x1="160" y1="250" x2="125" y2="330"/>
    <line x1="195" y1="250" x2="290" y2="330"/>
    <line x1="425" y1="250" x2="480" y2="330"/>
  </g>
  <line x1="275" y1="95" x2="325" y2="95" stroke="#9bf1ff" stroke-width="4" opacity="0.6"/>
  <line x1="150" y1="225" x2="200" y2="225" stroke="#9bf1ff" stroke-width="4" opacity="0.6"/>
  <line x1="400" y1="225" x2="450" y2="225" stroke="#9bf1ff" stroke-width="4" opacity="0.6"/>
  <text x="185" y="425" font-family="Arial, sans-serif" font-size="30" fill="#ffffff" opacity="0.85">Interactive Fiction</text>
</svg>
